<svg xmlns="http://www.w3.org/2000/svg" width="598" height="178" viewBox="0 0 598 178">
  <defs>
    <style>
      .cls-1, .cls-2 {
        fill: #f2f2f2;
      }

      .cls-1 {
        fill-rule: evenodd;
        mix-blend-mode: difference;
      }
    </style>
  </defs>
  <path id="Impera_Grupp" data-name="Impera Grupp" class="cls-1" d="M174.265,50.8V42H150.23v8.8h7.611v75.745H150.23v8.8h24.035v-8.8h-7.611V50.8h7.611Zm7.205,12.535v72.011h8.279V75.339l7.878-3.867a4.988,4.988,0,0,1,2.137-.534,3.3,3.3,0,0,1,3.6,3.6v60.809h8.279V75.339l8.011-3.867a5.1,5.1,0,0,1,2.27-.534,3.161,3.161,0,0,1,3.472,3.467v60.943h8.279V74.405c0-6.8-4.941-11.735-11.884-11.735a12.171,12.171,0,0,0-5.608,1.2l-6.81,3.2c-2.137-2.934-5.475-4.4-9.614-4.4a11.825,11.825,0,0,0-5.608,1.2L189.749,66.4l-1.335-3.067H181.47Zm67.022,92.681V132.281l7.878,2.934a11.423,11.423,0,0,0,4.14.8c7.344,0,12.284-4.934,12.284-11.735V74.405A11.849,11.849,0,0,0,260.643,62.67a12.114,12.114,0,0,0-4.273.8L248.492,66.4l-1.335-3.067h-6.943v92.681h8.278Zm0-32.538V75.339l10.549-4.134a4.548,4.548,0,0,1,1.335-.133c2.671,0,4.14,1.6,4.14,4v48.941c0,2.267-2,3.6-4.14,3.6a4.768,4.768,0,0,1-1.335-.267ZM287.61,75.872a4.156,4.156,0,0,1,4.139-4.134H299.9a4.156,4.156,0,0,1,4.139,4.134v16.8H287.61v-16.8Zm24.7,25.071v-25.2a12.472,12.472,0,0,0-12.418-12.4h-8.146a12.472,12.472,0,0,0-12.418,12.4v47.074a12.675,12.675,0,0,0,12.418,12.535H299.9a12.588,12.588,0,0,0,12.418-12.535v-11.2h-8.279v11.335a4.156,4.156,0,0,1-4.139,4.134h-8.146a4.156,4.156,0,0,1-4.139-4.134v-22h24.7ZM340.347,62.67c-5.741,0-10.014,1.334-13.219,3.734l-1.335-3.067h-6.944v72.011h8.279V89.875c0-10.135.8-18.669,13.219-18.936V62.67Zm30.441,60.81-12.018,4.134a6.01,6.01,0,0,1-1.469.133,4.042,4.042,0,0,1-4.139-4V105.077a4.448,4.448,0,0,1,4.139-4.134h13.487V123.48ZM357.3,92.675a12.559,12.559,0,0,0-12.418,12.4v19.736c0,6.534,4.674,11.2,11.751,11.2a20.142,20.142,0,0,0,4.807-.8l9.48-3.067,1.335,3.2H379.2V75.739a12.559,12.559,0,0,0-12.418-12.4H358.77a12.5,12.5,0,0,0-12.551,12.4v7.068H354.5V75.872a3.722,3.722,0,0,1,1.2-2.934,3.929,3.929,0,0,1,2.938-1.2h8.011a4.156,4.156,0,0,1,4.14,4.134v16.8H357.3Zm72.363-27.738h8.813v-10.4A12.53,12.53,0,0,0,425.925,42h-5.742a12.7,12.7,0,0,0-12.551,12.535v68.277a12.529,12.529,0,0,0,12.551,12.535h5.742a12.53,12.53,0,0,0,12.552-12.535V89.074H423.922v8.135h5.742v25.6a3.73,3.73,0,0,1-3.739,3.734h-5.742a3.73,3.73,0,0,1-3.738-3.734V54.536a3.818,3.818,0,0,1,3.738-3.734h5.742a3.73,3.73,0,0,1,3.739,3.734v10.4Zm37.515-2.267c-5.742,0-10.014,1.334-13.219,3.734l-1.335-3.067h-6.944v72.011h8.279V89.875c0-10.135.8-18.669,13.219-18.936V62.67Zm36.85,72.678V63.337H495.75v60.009l-9.881,4a4.612,4.612,0,0,1-1.736.4c-2.27,0-4.139-1.2-4.139-3.6V63.337h-8.279v60.809c0,7.468,5.608,11.869,12.418,11.869a13.3,13.3,0,0,0,4.807-.934l6.81-2.933v3.2h8.279Zm14.815,20.67V132.281l7.879,2.934a11.414,11.414,0,0,0,4.139.8c7.344,0,12.284-4.934,12.284-11.735V74.405A11.849,11.849,0,0,0,531,62.67a12.105,12.105,0,0,0-4.272.8L518.844,66.4l-1.335-3.067h-6.943v92.681h8.278Zm0-32.538V75.339l10.549-4.134a4.548,4.548,0,0,1,1.335-.133c2.671,0,4.14,1.6,4.14,4v48.941c0,2.267-2,3.6-4.14,3.6a4.768,4.768,0,0,1-1.335-.267Zm39.118,32.538V132.281l7.878,2.934a11.414,11.414,0,0,0,4.139.8c7.344,0,12.285-4.934,12.285-11.735V74.405A11.849,11.849,0,0,0,570.113,62.67a12.11,12.11,0,0,0-4.273.8L557.962,66.4l-1.335-3.067h-6.944v92.681h8.279Zm0-32.538V75.339l10.549-4.134a4.542,4.542,0,0,1,1.335-.133c2.67,0,4.139,1.6,4.139,4v48.941c0,2.267-2,3.6-4.139,3.6a4.754,4.754,0,0,1-1.335-.267Z"/>
  <path class="cls-2" d="M5,0H98a31,31,0,0,1,31,31V172a5,5,0,0,1-5,5H31A31,31,0,0,1,0,146V5A5,5,0,0,1,5,0Z"/>
  <path id="IG" class="cls-1" d="M58.587,30.809V17.385H21.93V30.809H33.538V146.334H21.93v13.424H58.587V146.334H46.979V30.809H58.587Zm37.47,21.559H109.5V36.5A19.109,19.109,0,0,0,90.355,17.385H81.6A19.375,19.375,0,0,0,62.455,36.5V140.639A19.109,19.109,0,0,0,81.6,159.758h8.757A19.11,19.11,0,0,0,109.5,140.639V89.181H87.3v12.407h8.757v39.051a5.689,5.689,0,0,1-5.7,5.695H81.6a5.689,5.689,0,0,1-5.7-5.695V36.5a5.824,5.824,0,0,1,5.7-5.695h8.757a5.689,5.689,0,0,1,5.7,5.695V52.368Z"/>
</svg>
